<svg t="1702800066692" class="icon" viewBox="0 0 1024 1024" version="1.1" xmlns="http://www.w3.org/2000/svg" p-id="5480"
     width="200" height="200">
    <path d="M896 490.666667a362.346667 362.346667 0 0 1-341.333333 362.046666V938.666667h192a21.333333 21.333333 0 0 1 0 42.666666H320a21.333333 21.333333 0 0 1 0-42.666666h192v-85.953334A362.366667 362.366667 0 0 1 170.666667 490.666667a21.333333 21.333333 0 0 1 42.666666 0c0 176.446667 143.553333 320 320 320s320-143.553333 320-320a21.333333 21.333333 0 0 1 42.666667 0zM367.4 656.6A234.6 234.6 0 0 0 768 490.666667V277.333333a234.666667 234.666667 0 1 0-469.333333 0v213.333334a233.966667 233.966667 0 0 0 68.733333 165.933333z"
          fill="#ffcc9c" p-id="5481"></path>
</svg>